<?xml version="1.0" encoding="utf-8"?>
<!-- Generator: Adobe Illustrator 21.1.0, SVG Export Plug-In . SVG Version: 6.00 Build 0)  -->
<svg version="1.1" id="Layer_1" xmlns="http://www.w3.org/2000/svg" xmlns:xlink="http://www.w3.org/1999/xlink" x="0px" y="0px"
	 viewBox="0 0 882.7 264.1" width="882.7" height="264.1" style="enable-background:new 0 0 882.7 264.1;" xml:space="preserve">
<style type="text/css">
	.st0{fill:#41B6E6;}
</style>
<title>OPG_original_RGB</title>
<path d="M0,234.5v-0.2c0-16.4,12.3-30.8,30.4-30.8s30.2,14.2,30.2,30.6v0.2c0,16.4-12.3,30.8-30.4,30.8S0,250.9,0,234.5z
	 M53.7,234.5v-0.2c0-13.5-9.8-24.5-23.4-24.5S7,220.7,7,234.2v0.2c0,13.5,9.8,24.6,23.5,24.6S53.7,248,53.7,234.5z"/>
<path d="M68.1,204.6h6.3l37.5,47.7v-47.7h6.5v59.5H113l-38.4-48.8v48.8h-6.5V204.6z"/>
<path d="M130.1,204.6h43v6.1h-36.3V231h32.4v6.1h-32.4V258h36.7v6.1h-43.4V204.6z"/>
<path d="M186.2,204.6h23.4c13.9,0,22.6,7.9,22.6,19.9v0.2c0,13.3-10.7,20.3-23.8,20.3h-11.8v19.1h-10.4V204.6z M208.8,235.5
	c7.9,0,12.8-4.4,12.8-10.6v-0.2c0-7-5-10.6-12.8-10.6h-12.2v21.4H208.8L208.8,235.5z"/>
<path d="M253,204.2h9.7l26.2,59.9h-11l-6-14.4h-28.2l-6.1,14.4h-10.7L253,204.2z M268,240.4l-10.3-23.8l-10.2,23.8H268z"/>
<path d="M297.3,204.6h26.5c7.5,0,13.3,2.2,17.2,5.9c3.3,3.5,5,8.1,4.9,12.8v0.2c0,9.8-5.9,15.6-14.1,18l16.1,22.5h-12.4l-14.6-20.7
	h-13.1v20.7h-10.4V204.6z M323.1,234.1c7.5,0,12.2-3.9,12.2-9.9V224c0-6.4-4.6-9.9-12.3-9.9h-15.2v20L323.1,234.1L323.1,234.1z"/>
<path d="M369.7,214.3h-18.9v-9.7h48.3v9.7h-18.9v49.8h-10.5V214.3z"/>
<path d="M408.4,204.6h9.7l31.9,41.1v-41.1h10.3v59.5h-8.7l-32.8-42.3v42.3h-10.3V204.6z"/>
<path d="M472.1,204.6h44.1v9.3h-33.6v15.5h29.8v9.3h-29.8v16h34.1v9.3h-44.5V204.6z"/>
<path d="M525.6,204.6h26.5c7.5,0,13.3,2.2,17.2,5.9c3.3,3.5,5,8.1,4.9,12.8v0.2c0,9.8-5.9,15.6-14.1,18l16,22.5h-12.4l-14.6-20.7
	h-13.1v20.7h-10.5V204.6z M551.4,234.1c7.5,0,12.2-3.9,12.2-9.9V224c0-6.4-4.6-9.9-12.3-9.9h-15.2v20L551.4,234.1L551.4,234.1z"/>
<path d="M582.2,234.5v-0.2c0-16.9,13.2-30.8,31.2-30.8c10.7,0,17.2,2.9,23.4,8.2l-8.2,9.9c-4.6-3.8-8.7-6-15.5-6
	c-9.5,0-17.1,8.4-17.1,18.5v0.2c0,10.9,7.5,18.9,18,18.9c4.4,0.1,8.7-1.1,12.3-3.6v-8.5h-13.1v-11.3h25.8v25.8
	c-7,6.1-16.1,9.5-25.4,9.4C594.9,265.1,582.2,252.1,582.2,234.5z"/>
<path d="M648.1,204.6h27.2c7.6,0,13.4,2.1,17.3,6c3.3,3.3,5.1,8,5.1,13.6v0.2c0,9.6-5.2,15.6-12.7,18.4l14.5,21.2h-15.3l-12.7-19
	h-10.3v19h-13V204.6z M674.4,233.5c6.4,0,10-3.4,10-8.4v-0.2c0-5.6-3.9-8.5-10.3-8.5h-13v17.1H674.4L674.4,233.5z"/>
<path d="M703.4,234.5v-0.2c0-16.9,13.3-30.8,31.7-30.8s31.5,13.7,31.5,30.6v0.2c0,16.9-13.3,30.8-31.7,30.8S703.4,251.4,703.4,234.5
	z M752.9,234.5v-0.2c0-10.2-7.5-18.7-18-18.7s-17.9,8.3-17.9,18.5v0.2c0,10.2,7.5,18.7,18,18.7S752.9,244.7,752.9,234.5L752.9,234.5
	z"/>
<path d="M773.9,238.6v-34H787v33.6c0,9.7,4.8,14.7,12.8,14.7s12.8-4.8,12.8-14.3v-34.1h13.1v33.6c0,18-10.1,26.8-26.1,26.8
	S773.9,256.1,773.9,238.6z"/>
<path d="M835.7,204.6H860c14.2,0,22.8,8.4,22.8,20.6v0.2c0,13.8-10.7,20.9-24,20.9h-9.9v17.8h-13.1V204.6z M859.1,234.6
	c6.5,0,10.4-3.9,10.4-9v-0.2c0-5.9-4.1-9-10.6-9h-10.1v18.2L859.1,234.6L859.1,234.6z"/>
<polygon class="st0" points="408.9,45.2 445.5,61 482,45.2 445.5,0 "/>
<polygon class="st0" points="372.3,90.4 408.9,106.2 445.5,90.4 408.9,45.2 "/>
<polygon class="st0" points="445.5,90.4 482,106.2 518.6,90.4 482,45.2 "/>
<polygon class="st0" points="482,135.6 518.6,151.4 555.2,135.6 518.6,90.4 "/>
<polygon class="st0" points="408.9,135.6 445.5,151.4 482,135.6 445.5,90.4 "/>
<polygon class="st0" points="335.8,135.6 372.3,151.4 408.9,135.6 372.3,90.4 "/>
</svg>
